# xmcd
#
# Track frame offsets: 
#        150
#        16677
#        31382
#        43889
#        60691
#        75950
#        91512
#        105294
#        120608
#        134672
#        149312
#
# Disc length: 2218 seconds
#
# Revision: 0
# Processed by: cddbd v1.5.2PL0 Copyright (c) Steve Scherf et al.
# Submitted via: ExactAudioCopy v0.99pb4
#
DISCID=8108a80b
DTITLE=พรพรรณ วนา - อกหักพักปลายซอย
DYEAR=2009
DGENRE=Country
TTITLE0=อกหักพักปลายซอย
TTITLE1=เมาแล้วหล่อ
TTITLE2=รักกันไม่จริง
TTITLE3=นิ่งเสี'ีกว่า
TTITLE4=อุ้มท้องร้องทุกข์
TTITLE5=ขอไกลคนลวง
TTITLE6=จูบแล้วลา
TTITLE7=เสี้ยนรักตำใจ
TTITLE8=จริงไหมเออ
TTITLE9=คอยพี่กลับนา
TTITLE10=หยุดรักพักใจ
EXTD=
EXTT0=
EXTT1=
EXTT2=
EXTT3=
EXTT4=
EXTT5=
EXTT6=
EXTT7=
EXTT8=
EXTT9=
EXTT10=
PLAYORDER=
